<svg width="302" height="450" viewBox="0 0 302 450" fill="none" xmlns="http://www.w3.org/2000/svg">
<g clip-path="url(#clip0_2987_39002)">
<path d="M176.135 74.3138L119.797 41.8922C116.3 39.8781 115.088 35.4016 117.091 31.8848L131.499 6.55997C133.502 3.04316 137.953 1.82459 141.449 3.8387L197.788 36.2603C201.272 38.2618 202.502 42.7572 200.5 46.274L186.092 71.5988C184.089 75.1156 179.619 76.3216 176.135 74.3201" fill="#D2CDBF"/>
<path d="M179.734 78.1523C177.988 78.1523 176.268 77.6977 174.718 76.8011L118.379 44.3795C116.031 43.0284 114.343 40.8312 113.633 38.2046C112.924 35.5781 113.269 32.8252 114.619 30.4638L129.027 5.13903C130.37 2.77134 132.555 1.07923 135.167 0.365768C137.778 -0.347696 140.515 -0.000434689 142.863 1.35704L199.201 33.7786C204.054 36.5756 205.749 42.82 202.968 47.7006L188.56 73.0254C187.217 75.3868 185.032 77.0852 182.408 77.7987C181.523 78.0386 180.625 78.1586 179.734 78.1586V78.1523ZM137.828 5.72622C137.439 5.72622 137.044 5.77673 136.654 5.88406C135.506 6.19976 134.551 6.93848 133.961 7.98026L119.553 33.3051C118.963 34.3405 118.813 35.5465 119.12 36.7019C119.434 37.8573 120.169 38.8171 121.204 39.4106L177.543 71.8321C178.572 72.4193 179.765 72.5771 180.92 72.2615C182.069 71.9458 183.03 71.207 183.613 70.1716L198.021 44.8468C199.239 42.7064 198.498 39.9662 196.364 38.7413L140.032 6.31972C139.348 5.92826 138.594 5.72622 137.828 5.72622Z" fill="#221E1F"/>
<path d="M177.739 64.6478C134.383 22.4966 67.6111 20.6846 24.0234 57.4943V404.882C70.1537 389.299 103.665 351.082 116.573 301.884L141.659 249.921C159.639 243.165 176.069 231.687 188.982 215.53C224.503 171.061 219.569 105.315 177.739 64.6478Z" fill="white"/>
<path d="M24.0299 407.747C23.4397 407.747 22.8559 407.564 22.3662 407.211C21.6191 406.674 21.1797 405.809 21.1797 404.887V57.4934C21.1797 56.6474 21.5501 55.8455 22.1967 55.3025C43.9874 36.8977 71.9933 27.4143 101.085 28.6013C130.479 29.7946 158.403 41.8667 179.723 62.5887C200.465 82.7488 213.065 109.69 215.212 138.449C217.365 167.241 208.84 195.255 191.205 217.322C178.718 232.949 162.32 244.989 143.731 252.193L119.26 302.887C112.756 327.511 100.872 349.988 84.8819 367.901C68.3898 386.375 48.225 399.729 24.9402 407.596C24.6451 407.697 24.3375 407.747 24.0361 407.747H24.0299ZM26.8738 58.8383V400.84C69.7395 384.961 101.311 348.846 113.823 301.157C113.873 300.98 113.936 300.804 114.018 300.639L139.104 248.676C139.425 248.014 139.983 247.502 140.668 247.243C158.742 240.45 174.681 228.864 186.766 213.736C203.491 192.799 211.577 166.218 209.53 138.879C207.49 111.521 195.493 85.8931 175.761 66.7053C155.452 46.9619 128.846 35.4581 100.853 34.3216C73.6444 33.2104 47.4277 41.9172 26.8738 58.8383Z" fill="#221E1F"/>
<path d="M183.225 222.172C188.956 225.91 193.533 230.462 195.818 235.633C200.52 246.272 198.581 258.918 191.97 268.313C183.871 279.824 170.129 286.27 156.286 288.505C143.178 290.627 135.368 297.054 116.578 301.89" fill="white"/>
<path d="M116.572 304.75C115.304 304.75 114.142 303.891 113.816 302.597C113.427 301.062 114.343 299.503 115.869 299.111C124.809 296.807 131.275 294.111 136.982 291.731C143.31 289.091 148.772 286.812 155.834 285.669C164.441 284.274 180.281 279.955 189.641 266.646C195.894 257.756 197.3 246.031 193.213 236.788C191.305 232.469 187.312 228.245 181.674 224.57C180.356 223.712 179.979 221.937 180.833 220.612C181.687 219.286 183.451 218.907 184.769 219.765C191.43 224.103 196.019 229.053 198.411 234.464C203.371 245.69 201.795 259.29 194.287 269.96C186.458 281.085 173.124 288.675 156.732 291.327C150.328 292.362 145.149 294.521 139.154 297.022C133.271 299.478 126.61 302.256 117.275 304.661C117.037 304.724 116.798 304.75 116.566 304.75H116.572Z" fill="#221E1F"/>
<path d="M299.158 226.762H95.7031V393.845H299.158V226.762Z" fill="white"/>
<path d="M299.151 396.712H95.7018C94.1323 396.712 92.8516 395.43 92.8516 393.845V226.762C92.8516 225.184 94.126 223.896 95.7018 223.896H299.157C300.727 223.896 302.007 225.177 302.007 226.762V393.845C302.007 395.424 300.733 396.712 299.157 396.712H299.151ZM98.5457 390.985H296.307V229.628H98.5457V390.985Z" fill="#221E1F"/>
<path d="M197.426 248.071C213.215 248.071 226.015 238.53 226.015 226.761C226.015 214.993 213.215 205.452 197.426 205.452C181.636 205.452 168.836 214.993 168.836 226.761C168.836 238.53 181.636 248.071 197.426 248.071Z" fill="white"/>
<path d="M197.426 250.937C180.092 250.937 165.992 240.09 165.992 226.762C165.992 213.433 180.092 202.586 197.426 202.586C214.759 202.586 228.859 213.433 228.859 226.762C228.859 240.09 214.759 250.937 197.426 250.937ZM197.426 208.313C183.231 208.313 171.686 216.59 171.686 226.762C171.686 236.933 183.231 245.211 197.426 245.211C211.62 245.211 223.165 236.933 223.165 226.762C223.165 216.59 211.62 208.313 197.426 208.313Z" fill="#221E1F"/>
<path d="M89.43 123.013C85.8139 120.929 85.1422 115.265 87.9358 110.36C90.7295 105.454 95.9214 103.162 99.5437 105.245C103.16 107.323 103.832 112.986 101.038 117.898C98.2442 122.804 93.0523 125.096 89.4363 123.013" fill="#221E1F"/>
<path d="M122.052 141.784C118.436 139.707 117.771 134.043 120.558 129.131C123.352 124.225 128.544 121.933 132.16 124.017C135.776 126.1 136.441 131.758 133.648 136.663C130.854 141.569 125.668 143.868 122.052 141.784Z" fill="#221E1F"/>
<path d="M84.8494 168.983C99.0751 177.166 112.617 180.342 117.262 172.102C122.611 164.463 112.391 153.767 98.1649 145.584L98.2214 145.616C83.9956 137.433 69.6505 133.986 65.8147 142.497C61.0999 150.699 70.6863 160.832 84.9121 169.021" fill="#F6BF2A"/>
<path d="M107.653 179.793C99.7612 179.793 90.4573 175.506 83.4825 171.503C75.0638 166.66 64.542 159.058 62.2066 150.351C61.334 147.087 61.6918 144.006 63.2739 141.184C64.5734 138.399 66.846 136.417 69.8594 135.438C73.7706 134.169 82.8233 133.481 99.5729 143.103C116.354 152.763 120.359 160.977 121.251 165.012C121.941 168.125 121.389 171.105 119.662 173.637C118.043 176.44 115.582 178.309 112.342 179.205C110.861 179.616 109.285 179.799 107.653 179.799V179.793ZM86.2574 166.496C96.6787 172.494 105.637 175.108 110.835 173.675C112.631 173.176 113.924 172.203 114.778 170.688L114.929 170.454C115.808 169.198 116.052 167.866 115.695 166.256C114.558 161.123 107.32 154.171 96.798 148.103C86.2511 142.03 76.5956 139.264 71.611 140.887C70.054 141.392 69.0307 142.282 68.3967 143.684L68.2711 143.93C67.4047 145.439 67.2227 147.049 67.7061 148.861C69.1061 154.083 75.8674 160.516 86.2574 166.502V166.496Z" fill="#221E1F"/>
<path d="M24.0221 450C22.4526 450 21.1719 448.718 21.1719 447.133V7.04617C21.1719 5.46771 22.4463 4.17969 24.0221 4.17969C25.5978 4.17969 26.8722 5.4614 26.8722 7.04617V447.14C26.8722 448.718 25.5978 450.006 24.0221 450.006V450Z" fill="#221E1F"/>
<path d="M24.0396 262.959C35.7414 262.959 45.2276 250.085 45.2276 234.205C45.2276 218.325 35.7414 205.452 24.0396 205.452C12.3378 205.452 2.85156 218.325 2.85156 234.205C2.85156 250.085 12.3378 262.959 24.0396 262.959Z" fill="white"/>
<path d="M24.0382 265.819C10.7855 265.819 0 251.638 0 234.205C0 216.773 10.7855 202.592 24.0382 202.592C37.2909 202.592 48.0764 216.773 48.0764 234.205C48.0764 251.638 37.2909 265.819 24.0382 265.819ZM24.0382 208.312C13.9245 208.312 5.69409 219.923 5.69409 234.199C5.69409 248.474 13.9245 260.086 24.0382 260.086C34.152 260.086 42.3823 248.474 42.3823 234.199C42.3823 219.923 34.152 208.312 24.0382 208.312Z" fill="#221E1F"/>
<path d="M114.484 341.152V281.036H151.8V291.448H126.948V305.128H148.684V315.54H126.948V330.74H152.18V341.152H114.484ZM179.371 306.952C172.531 306.952 168.503 311.36 168.503 319.72V341.152H156.571V298.212H168.503V306.192C169.795 300.188 173.291 297.148 179.675 297.148C180.967 297.148 182.183 297.3 183.019 297.528L182.867 307.104C182.183 307.028 180.815 306.952 179.371 306.952ZM208.337 306.952C201.497 306.952 197.469 311.36 197.469 319.72V341.152H185.537V298.212H197.469V306.192C198.761 300.188 202.257 297.148 208.641 297.148C209.933 297.148 211.149 297.3 211.985 297.528L211.833 307.104C211.149 307.028 209.781 306.952 208.337 306.952ZM252.673 319.644C252.673 333.552 246.289 342.216 232.685 342.216C219.005 342.216 212.621 333.552 212.621 319.644C212.621 305.812 219.005 297.148 232.685 297.148C246.289 297.148 252.673 305.812 252.673 319.644ZM240.817 319.644C240.817 310.676 238.613 306.344 232.685 306.344C226.757 306.344 224.477 310.676 224.477 319.644C224.477 328.688 226.757 333.02 232.685 333.02C238.613 333.02 240.817 328.688 240.817 319.644ZM279.628 306.952C272.788 306.952 268.76 311.36 268.76 319.72V341.152H256.828V298.212H268.76V306.192C270.052 300.188 273.548 297.148 279.932 297.148C281.224 297.148 282.44 297.3 283.276 297.528L283.124 307.104C282.44 307.028 281.072 306.952 279.628 306.952Z" fill="#EB003B"/>
</g>
<defs>
<clipPath id="clip0_2987_39002">
<rect width="302" height="450" fill="white"/>
</clipPath>
</defs>
</svg>
